<?xml version="1.0" standalone="no"?><!DOCTYPE svg PUBLIC "-//W3C//DTD SVG 1.1//EN" "http://www.w3.org/Graphics/SVG/1.1/DTD/svg11.dtd"><svg t="1688209740021" class="icon" viewBox="0 0 1024 1024" version="1.1" xmlns="http://www.w3.org/2000/svg" p-id="2665" xmlns:xlink="http://www.w3.org/1999/xlink" width="200" height="200"><path d="M555.114436 976.364727c207.444841-19.791557 384.102815-178.124015 417.088744-392.899063C1009.587232 343.767915 856.385919 118.730578 626.217438 60.088927c9.529268-13.194372 19.058537-25.655722 28.587805-37.384052 241.896811 71.103002 400.229269 312.266793 360.646155 568.090995-37.384053 241.896811-239.697749 417.821765-474.997375 431.749157 4.398124-14.660413 8.796248-30.053846 14.660413-46.1803zM461.287794 3.646338c-3.665103 14.660413-8.063227 29.320826-13.194372 46.1803-199.381614 27.121764-366.51032 182.522139-398.763228 390.700001-36.651032 238.231708 114.35122 463.269044 343.05366 522.643716-9.529268 12.461351-19.058537 25.655722-28.587805 37.384053C124.098299 928.718385-33.501138 688.287616 6.081976 433.929453 42.733008 198.629828 234.784416 25.636957 461.287794 3.646338z" fill="#888888" p-id="2666"></path><path d="M544.119126 0.714255c11.72833 0.733021 22.72364 1.466041 33.71895 2.932083-90.161539 121.681426-312.266793 412.69062-220.639213 201.580676C394.582916 118.730578 415.840514 54.957783 427.568844 8.777482 464.952897 1.447276 503.802991-1.484807 544.119126 0.714255zM477.414248 1023.278048c-11.72833-0.733021-22.72364-1.466041-33.71895-2.932083 90.161539-121.681426 312.266793-411.9576 220.639213-200.847655-37.384053 86.496436-58.641651 150.269231-70.369981 196.449532-38.117073 6.597186-76.967167 9.529268-116.550282 7.330206z" fill="#888888" p-id="2667"></path><path d="M833.662279 518.226827c-24.189681-31.519888-66.704878-39.583115-101.156848-21.990619l-69.636961-63.772796c4.398124-21.990619 0-46.1803-15.393434-65.238837-27.121764-35.184991-77.700188-41.782176-112.885178-13.927392-29.320826 22.72364-38.850094 62.306754-24.922702 95.292683l-65.238837 79.166229c-13.927392-1.466041-27.854784 0.733021-41.049156 6.597186l-76.234146-69.636961c9.529268-25.655722 5.864165-54.976548-11.728331-77.700187-27.121764-35.184991-77.700188-41.782176-112.885178-13.927393S160.749331 450.055908 188.604116 485.240898c21.257599 27.121764 56.442589 37.384053 87.962477 27.121764L358.664904 587.863788c-5.864165 22.72364-1.466041 48.379362 14.660413 68.90394 27.121764 35.184991 77.700188 41.782176 112.885179 13.927392 32.252908-24.922702 40.316135-69.636961 19.791557-104.088931l59.374672-71.836022c18.325516 4.398124 37.384053 2.199062 54.243527-6.597186l70.369981 64.505816c-3.665103 21.990619 0.733021 44.714259 15.393434 63.772796 27.121764 35.184991 77.700188 41.782176 112.885178 13.927392s42.515197-76.967167 15.393434-112.152158z" fill="#04BEBD" p-id="2668"></path></svg>